<svg xmlns="http://www.w3.org/2000/svg" viewBox="0 0 300 300"><defs><style>.a{fill:#1d201f;}.b{fill:#fb7b7b;}</style></defs><title>Presentation</title><path d="M169.734,216.339c-1.768-.1-4.369-.126-7.551,0-7.929.3-15.733,1.793-23.662,2.02-2.248.076-4.495.4-6.137-.252a42.158,42.158,0,0,1-5.606-3.132c-7.45-4.672-13.006-8.207-16.137-9.747s-3.637-1.389-.859.782,8.182,6.238,14.925,10.834c1.742,1.137,3.384,2.3,5.48,3.409a10.841,10.841,0,0,0,2.854.985l-1.566,30.936a1.011,1.011,0,0,0,2.02.1l1.566-30.885c.808,0,1.566-.025,2.323-.051,10.708-.429,21.517-2.3,32.123-3.863C172.916,216.945,173.3,216.541,169.734,216.339Z"/><path d="M171.982,74.439l7.1-1.01a6.168,6.168,0,0,0-2.551-1.238C174.482,71.509,171.982,74.439,171.982,74.439Z"/><path d="M159.1,71.888l6.011,1.97C165.113,73.833,162.36,69.186,159.1,71.888Z"/><path d="M165.037,69.085c-.429-4.7-5.808-2.8-6.414-1.743s.631,1.718.985,1.44C163.7,65.8,165.163,70.6,165.037,69.085Z"/><path d="M179.861,69.666c-.227-1.238-4.748-4.874-6.743-.556-.631,1.389,2.425-2.677,5.3,1.591C178.674,71.105,180.088,70.9,179.861,69.666Z"/><path d="M167.386,82.065c1.111.177,1.086-1.666.682-1.894-.43-.252-2.526-.884-2.652-1.111-.126-.2,2.475-5,1.894-5.884,0,0-3.637,4.672-3.712,5.758S166.275,81.888,167.386,82.065Z"/><path d="M171.755,86.838a.75.75,0,0,0-.935-1.111c-3.485,3.182-5-.758-4.823.5C166.552,90.222,171.249,87.823,171.755,86.838Z"/><path d="M153.976,82.873c1.414,5.253,4.571,9.748,10.278,11.945a17.574,17.574,0,0,0,8.991.935,15.287,15.287,0,0,0,5.4-1.894c1.136-.682,1.667-1.238,1.616-1.414-.05-.2-.631-.051-1.843.3a24.912,24.912,0,0,1-5.228.934,16.409,16.409,0,0,1-12.248-4.571c-5.253-5.1-5.278-12.45-5.3-19.269,0-2.373.025-4.267.025-5.606,0-2.626-.354-3.005-1.086-.379C152.966,69.64,152.309,76.787,153.976,82.873Z"/><path d="M217.969,118.784a30.2,30.2,0,0,0-4.546-3.636,46,46,0,0,0-7.172-3.713,63.38,63.38,0,0,0-9.192-3,78.54,78.54,0,0,0-9.268-1.692c-.228-5.2-.48-10.531-.783-15.708-.2-3.182-.4-6.061-.556-8.586a20.439,20.439,0,0,0,3.207-.859c3.485-1.666,2.879-7.5-1.313-7.6-1.111,0-1.439.429-1.237.505a5.886,5.886,0,0,1,2.045.758,2.609,2.609,0,0,1,.3,4.192c-1.237,1.01-3.055.505-4.47,1.061l-.883.353.025,1.035c.1,7.274.4,16.516.833,25.911-1.616.985-5.4,2.879-9.546,2.222-3.081-.48-5.783-2.3-8.03-5.429a24.445,24.445,0,0,0,.4-3.839c.126-2.4-.227-2.753-1.061-.429-.177.5-.859,3.762-1.389,3.737a5.462,5.462,0,0,1-.682-.1,19.743,19.743,0,0,0-6.212.227,83.4,83.4,0,0,0-17.652,4.95,61.858,61.858,0,0,0-7.2,3.359,24.772,24.772,0,0,0-4.268,2.9c-1.742,1.717-1.565,2.121.455,1.036,1.061-.48,2.6-1.213,4.571-2.021a148.118,148.118,0,0,1,24.041-7.5,27.932,27.932,0,0,1,5.783-.758,6.194,6.194,0,0,0,1.768-.075c.025,0,3.435,3.434,3.965,3.762a14.079,14.079,0,0,0,5.177,2,15.68,15.68,0,0,0,11.036-2.374l.152.026c1.894.177,3.863.454,5.783.783a73.867,73.867,0,0,1,24.95,9.141c.783.556,1.389,1.036,1.844,1.339s.732.429.833.4C219.863,121.107,219.332,120.35,217.969,118.784Z"/><path d="M157.259,58.706c.808,2.424,1.263,2.6,1.136.025-.2-4.521-.631-9.445,2.7-13.056A8.236,8.236,0,0,1,169.81,43.4c3.334,1.313,5.379,4.571,8.839,5.783a12.747,12.747,0,0,0,3.99.758,7.172,7.172,0,0,0,5.3-1.743c.935-.985.884-1.768.758-1.843-.177-.127-.455.328-1.313.858a6.8,6.8,0,0,1-4.42.707c-6.339-.884-9.571-8.081-16.213-7.879a10.79,10.79,0,0,0-8.46,4.723C155.491,48.806,155.769,54.21,157.259,58.706Z"/><path d="M182.866,55.322c-1.667-.733-2.8-2.147-4.091-3.359-2.374-2.248-5.48-2.93-8.409-1.238a8.372,8.372,0,0,0-3.687,9.193c.227.884.5,1.338.681,1.363.2.026.3-.4.455-1.237.4-2.525,1.086-5.2,3.384-6.667a4.319,4.319,0,0,1,3.636-.556c2.6.859,3.965,3.814,6.592,4.849a9.538,9.538,0,0,0,6.338.48,5.016,5.016,0,0,0,3.107-2.576c.378-.858.227-1.389.075-1.465-.177-.1-.4.228-.909.708a4.831,4.831,0,0,1-2.6,1.287A8.776,8.776,0,0,1,182.866,55.322Z"/><path d="M188.068,62.847a9.455,9.455,0,0,0-2.954-1.818,5.982,5.982,0,0,0-4.192.1,3.283,3.283,0,0,0-1.415,1.061,1.946,1.946,0,0,0-.353,1.692c.05.227.227.454.454.4.3-.051.606-.556.859-.733a2.987,2.987,0,0,1,1.01-.429c2.677-.505,4.066,1.591,5.859,3.131a10.816,10.816,0,0,0,4.041,2.172,5.932,5.932,0,0,0,5.555-.985,5.163,5.163,0,0,0,1.92-2.9c.2-1.237-1.617.3-1.869.455a5.935,5.935,0,0,1-2.929,1.161C191.68,66.206,189.735,64.236,188.068,62.847Z"/><path class="a" d="M252.693,95.323c-.3-.126-.556-.05-.682-.2-.127-.1-.152-.606.606-.934a2.052,2.052,0,0,1,1.414-.025,2.822,2.822,0,0,1,1.616,1.262,6.246,6.246,0,0,1,.808,2.273,11.058,11.058,0,0,1,.177,2.7,4.7,4.7,0,0,1-.454,1.718,3.331,3.331,0,0,1-1.516,1.49,8.444,8.444,0,0,1-3.156.53.964.964,0,0,0-.2.025.828.828,0,0,0,.53-.278c.5-.656.253-.782.328-.5.026.455.051.884.076,1.339.025.884.051,1.742.025,2.55a28.249,28.249,0,0,1-.909,7.4c-.48,1.389-.858,1.187-1.111-.228s-.4-4.015-.682-7.475c-.076-.858-.151-1.742-.227-2.626l-.051-.657a2.6,2.6,0,0,1,.076-1.212,1.833,1.833,0,0,1,1.036-1.086,1.958,1.958,0,0,1,.757-.151c.278-.025.53-.051.758-.051.959,0,1.515-.1,1.616-.252.151-.076.328-.48.4-1.137a13.647,13.647,0,0,0,.025-2.045,4.747,4.747,0,0,0-.227-1.44A1.47,1.47,0,0,0,252.693,95.323Z"/><path d="M232.566,102.344c.934.152.909-1.389.555-1.591a19.185,19.185,0,0,1-2.2-.934c-.1-.177,2.071-4.167,1.566-4.9,0,0-3.031,3.889-3.081,4.8C229.333,100.627,231.631,102.192,232.566,102.344Z"/><path d="M236.2,106.309a.616.616,0,0,0-.783-.909c-2.9,2.651-4.167-.632-4.015.429C231.884,109.137,235.773,107.142,236.2,106.309Z"/><path d="M241.632,109.794c-3.99,2.727-8.688,1.641-12.2-1.288-5.733-4.8-7.424-12.854-6.869-20,.1-1.288.253-2.4.379-3.334,2-.277,7.3-1.515,8.258-6.49a15.268,15.268,0,0,0-3.056-.075c-2.1.1-4.823,2.07-5.985,4.368a22.517,22.517,0,0,0-1.642,5.076c-1.818,8.334.632,18.713,8.082,23.638,3.914,2.576,10.354,3,13.611-.909.783-.96.884-1.667.783-1.793C242.844,108.809,242.49,109.188,241.632,109.794Z"/><path d="M237.288,94.288c.076.606.4,1.086.783,1.061.353-.051.606-.581.53-1.187s-.4-1.086-.783-1.061C237.465,93.126,237.212,93.657,237.288,94.288Z"/><path d="M228.02,94.162c.076.631.429,1.111.808,1.086.379-.051.631-.581.556-1.238-.076-.631-.43-1.111-.809-1.086C228.2,92.975,227.969,93.53,228.02,94.162Z"/><path d="M232.086,90.576c-1.364-4.142-5.783-1.313-6.112-.228s.909,1.415,1.187,1.086C230.166,87.874,232.515,91.889,232.086,90.576Z"/><path d="M241.4,90.475c-.429-1.036-5.1-3.46-6.086.732-.3,1.339,1.642-2.8,5,.429C240.621,91.939,241.834,91.51,241.4,90.475Z"/><path d="M244.359,90.98c-1.919-5.581-5.606-10.379-12.046-12.1-.328-.075-.657-.151-1.01-.2A49.278,49.278,0,0,0,244.359,90.98Z"/><path d="M201.049,139.543c-2.121-1.288-1.717-1.541.631-.96s6.667,2,12.5,3.611a105.671,105.671,0,0,0,24.95,4.016c2.122.05,3.864.075,5.1.1,2.424.075,2.247.5-.1,1.136a29.939,29.939,0,0,1-5.127.833c-8.788.783-17.8-.883-26.137-3.661A67.749,67.749,0,0,1,201.049,139.543Z"/><path d="M262.516,235.2a21.446,21.446,0,0,0-5.151-3.006,46.643,46.643,0,0,0-8.183-2.575,94.9,94.9,0,0,0-20.278-1.768c-1.819.025-5.3.682-6.894-.354-1.288-.833-1.011-4.293-1.288-5.859-.1-.555-.2-.985-.278-1.338a96.512,96.512,0,0,0,12.652-3c2.3-11.289,3.182-24.774-.455-35.81.152.5-3.661-.53-4.167-1.035-.479-.43-1.59-1.49-1.313-2.273.3-.909,1.768-.531,2.4-.227,9.4,4.621,13.536-11.819,6.415-16.542a10.838,10.838,0,0,0-9.344-.682c-4.874,1.9-4.824,7.4-3.435,11.668.127.4.177,1.01-.227,1.136a.707.707,0,0,1-.5-.1,5.265,5.265,0,0,1-2.1-7.45c-8.334-5.278-19.37-6.945-27.375-.1a8.727,8.727,0,0,0-4.116-1.692c-5.278-.606-10.127,4.622-11.642,9.294-1.869,5.757,4.318,9.444,9.091,10.253a7.182,7.182,0,0,0,3.106-.1c.581-.152,1.541-1.011,1.541.176,0,3.511-6.693,2.576-6.667,2.4a141.844,141.844,0,0,0-1.314,34.32,106.543,106.543,0,0,0,17.072,1.364c0,.05-.025.1-.025.151-.228,1.819-.43,4.647-.657,7.779-.05.3-.1.353-.126.353a2.3,2.3,0,0,1-.581.278c-.859.252-1.717.53-2.626.808-1.844.581-3.788,1.212-5.809,1.919a142.041,142.041,0,0,0-20.4,8.713c-6.389,3.434-13.207,7.6-18.081,13.031a24.877,24.877,0,0,0-2.223,2.5c-2.247,2.9-2.171,3.409.581,1.01a93.817,93.817,0,0,1,15.481-10.985,181.929,181.929,0,0,1,24.849-11.491c2.147-.833,4.167-1.591,6.061-2.3.935-.353,1.844-.682,2.7-1.01a5.571,5.571,0,0,0,1.137-.606,15.61,15.61,0,0,0,8.839,2.879c5.934,0,10.657-3.586,12.45-5.177a18.206,18.206,0,0,0,2.1.48,39.851,39.851,0,0,0,4.571.3c10.682.353,21.011,1.313,31.238,4.545.859.354,1.617.682,2.223.935C264.082,237.2,264.663,237.1,262.516,235.2Zm-61.139-4.925c.051-1.843-.05-3.207-.1-4.545-.05-1.314-.126-2.425-.177-3.334-.025-.177-.025-.328-.05-.5a118.268,118.268,0,0,0,18.637-1.465,8.282,8.282,0,0,0-.126,1.01c-.1,1.061-.152,2.122-.177,3.182-.025.707-.025,1.415-.051,2.122a3.109,3.109,0,0,0,.4,1.843.092.092,0,0,1,.026.076.055.055,0,0,1-.051.05,19.531,19.531,0,0,1-6.541,3.612,13.427,13.427,0,0,1-9.7-.783c-.379-.177-.732-.379-1.086-.581C202.286,230.885,201.377,230.456,201.377,230.279Z"/><path d="M295.472,159.518c-.4-8.359-4.419-18.031-11.339-23.183-1.919-1.439-3.207-1.894-3.384-1.793-.2.127.657.758,2.349,2.4a29.585,29.585,0,0,1,5.783,7.929,38.67,38.67,0,0,1,3.788,13.814c1.187,16.036-13.586,26.037-27.6,28.865a51.788,51.788,0,0,1-16.036.732c-2.374-.277-3.687-.555-3.864-.353-.151.126.833.682,3.232,1.363,13.738,3.89,31.568-.858,40.911-11.793A25.83,25.83,0,0,0,295.472,159.518Z"/><path d="M249.864,165.908a24.406,24.406,0,0,0,6.819.353,47.3,47.3,0,0,0,9.621-1.616,26.22,26.22,0,0,0,6.465-2.627c1.112-.732,1.112-1.161-.2-1.111a60.685,60.685,0,0,0-6.54,1.036l-.758.151a13.856,13.856,0,0,0-.858-9.344.768.768,0,0,0-1.364.707,12.34,12.34,0,0,1,.48,8.965c-2.2.405-4.521.783-6.794,1.162-3.131.5-5.5.859-6.767,1.238C248.728,165.15,248.576,165.554,249.864,165.908Z"/><path class="b" d="M263.855,122.092s-1.945-.631-.253-4.874c1.414-3.535,7.627-19.874,4.369-33.941-3.359-14.419-19.37-22.526-32.729-16.111A31.166,31.166,0,0,0,223.4,77.621c3.106-.3,7.172-1.137,10.178-.329,16.97,4.5,14.849,30.3,11.818,36.037-2.172,4.117-5.732,10.657-11.566,9.218a5.589,5.589,0,0,1-1.136-.429,85.561,85.561,0,0,0,.176-8.713,9.628,9.628,0,0,1-3.535-1.313,17.616,17.616,0,0,1-5.152-4.8c.152,1.136.253,2.121.354,2.98.126,4.268-.379,8.535-.177,12.829.076,1.616-3.738,1.338-4.773,1.515a52.04,52.04,0,0,0-8.081,2.1,39.166,39.166,0,0,0-9.192,4.141,38.531,38.531,0,0,0-3.258,2.677s29.547,15.86,66.417,2.248l13.713-4.672A90.588,90.588,0,0,0,263.855,122.092Zm-2.121-28.966c-.177.354-.354.682-.556,1.011-.152.227-.278.328-.328.328-.026,0,.3-6.566.252-7.2a22.678,22.678,0,0,0-2.121-7.905,17.987,17.987,0,0,0-12.1-9.925,38.258,38.258,0,0,0-4.141-.681c-.985-.127-1.566-.2-1.616-.379-.051-.152.378-.329,1.414-.5a19.062,19.062,0,0,1,4.47-.076,17.875,17.875,0,0,1,6.338,1.843c4.874,2.425,7.829,7.425,9.067,12.577a20.041,20.041,0,0,1,.479,6.717A14.183,14.183,0,0,1,261.734,93.126Z"/><path class="b" d="M175.442,173.408l-37.376,3.03a23.889,23.889,0,0,0,.152,7.879c1.187,6.339,1.565,14.345-1.212,11.693-2.349-2.222-5.2-11.869-5.1-19.067l-34.6,2.8s16.011,3.762,12.6,11.894a10.837,10.837,0,0,1-3.535,4.571l28.183,18.006,44.371-1.313s.783-24.092,1.035-27.7C179.937,185.176,171.578,179.469,175.442,173.408Zm-6.263,36.365c-3.157.758-12.122,1.111-20.026.808s-11.769-1.187-8.637-1.944c3.157-.758,12.122-1.111,20.026-.808C168.472,208.132,172.335,209.016,169.179,209.773Z"/><path d="M107.055,186.641a11.7,11.7,0,0,0-8.789-4.192c-4.166-.278-8.636,1.161-13.308,1.944-10.354,1.743-20.582,1.263-30.431-2.5A126.477,126.477,0,0,1,40.183,175.2c-1.818-5.884-1.541-16.264-1.541-16.39a.761.761,0,0,0-.732-.783.682.682,0,0,0-.783.733c0,.429-.252,9.217,1.212,15.379-1.591-.909-2.929-1.692-3.99-2.3-1.818-1.061-2.8-1.692-3-1.591-.2.076.4.859,2.071,2.273a70.357,70.357,0,0,0,16.617,10.253c5.783,2.677,11.667,4.9,18.082,5.48.479.051.984.025,1.464.076-.252,1.01-.555,2.55-.959,4.722-.581,3.157-1.339,7.4-2.2,12.7-.177,1.061-9.521,1.338-10.582,1.338a53.422,53.422,0,0,1-11.162-1.06,53.2,53.2,0,0,1-22.627-10.178C8.237,184.949,4.247,165.5,9.929,149.265a39.06,39.06,0,0,1,13.688-18.157c7.576-5.632,16.667-8.738,25.632-11.768-8.687,1.262-17.273,3.889-24.7,8.561a41.608,41.608,0,0,0-17.4,21.39,47.119,47.119,0,0,0,.707,33.057c4.394,10.707,14.37,19.319,25.229,23.056,11.288,3.864,23.031,5.127,34.648,1.92l.353-.1.051-.354c.05-.429.1-.833.151-1.263l4.369-.126,2.122-17.122c6.565-.278,12.626-2.02,19.015-3.308,4.092-.834,8.89-.859,12.223,2.02,1.566,1.389,1.97,2.6,2.223,2.626.1.026.126-.227.025-.757A8.5,8.5,0,0,0,107.055,186.641Zm-35.785,17.4-2.828.075c.959-7.955,1.54-13.334,1.641-15.733q1.554.076,3.106.076Z"/><path d="M104,191.388a10.286,10.286,0,0,0-9.041-2.3,8.061,8.061,0,0,0-4.192,2.021c-.606.682-.454,1.06.354,1.06,1.995.026,3.964-.479,5.959-.4a13.716,13.716,0,0,1,5.582,1.212,4.125,4.125,0,0,0,1.793.531c.479,0,.707-.2.757-.379.051-.2-.05-.379-.252-.631A8.059,8.059,0,0,0,104,191.388Z"/><path d="M94.579,199.646c-4.04-2.272-8.712-1.464-12.627.607a16.9,16.9,0,0,0-5,3.813c-.757.909-.631,1.313.5,1.01,2.652-.732,5.076-2.1,7.652-3.056a13.9,13.9,0,0,1,8.536-.505c1.01.253,1.768.43,2.3.606.556.177.909.3,1.086.2.151-.1.126-.454-.3-1.035A7.256,7.256,0,0,0,94.579,199.646Z"/><path d="M99.352,195.555a11.821,11.821,0,0,0-1.767-1.161,10.454,10.454,0,0,0-7.779-1.061,5.54,5.54,0,0,0-1.767.808c-.758.556-.682.96.151,1.111,1.591.3,3.258.253,4.849.606,3.106.708,5.581,2.4,8.106,4.268.708.556,1.162.556,1.011-.48A6.751,6.751,0,0,0,99.352,195.555Z"/><path d="M66.674,85.9a6.26,6.26,0,0,0-2.45,1.06L70.891,88.2C70.866,88.227,68.619,85.374,66.674,85.9Z"/><path d="M83.139,86.333c-2.98-2.677-5.757,1.616-5.757,1.616Z"/><path d="M82.761,83.4c.328.278,1.54-.3.984-1.313-.53-1.036-5.53-3.031-6.136,1.388C77.432,84.868,79.048,80.4,82.761,83.4Z"/><path d="M63.618,83.429c-.277,1.162,1.061,1.389,1.314,1.035,2.9-3.914,5.631.051,5.076-1.288C68.315,79.01,63.9,82.267,63.618,83.429Z"/><path d="M74.907,95.627c1.06-.127,3.737-1.768,3.712-2.8s-3.258-5.581-3.258-5.581c-.606.783,1.667,5.43,1.541,5.632a25.622,25.622,0,0,1-2.551.934C73.922,94.01,73.821,95.753,74.907,95.627Z"/><path d="M71.5,98.935c-.277-.278-1.363.025-.934,1.01.429.96,4.773,3.409,5.48-.328C76.27,98.43,74.679,102.066,71.5,98.935Z"/><path d="M49.527,98.505c.05,1.591,2.98,4.8,5.455,5.405l.075.833c.834,9.091,1.945,13.486,2.475,9.824a66.446,66.446,0,0,0,.253-9.521c-.051-2.1-.127-4.344-.278-6.667l-.051-.858a2.85,2.85,0,0,0-.48-1.642A2.318,2.318,0,0,0,55.335,95l-.884-.126a5.228,5.228,0,0,1-2.525-.783,2.806,2.806,0,0,1-.834-2.1,11.58,11.58,0,0,1,.2-2.5A4.721,4.721,0,0,1,51.8,87.9c.985-.884,2.1-.783,2.3.808.378,2.828,1.464-3.409,3.308-4.293s10.733-2.374,12.9-14.6c0,0,3.46,6.617,14.117,8.688-.025.252-.05.53-.1.858-.1,1.313-.075,3.207,0,5.5a73.294,73.294,0,0,1-.075,7.753A22.1,22.1,0,0,1,82,101.056a11.466,11.466,0,0,1-6.414,5.657,12.84,12.84,0,0,1-4.117.555,28.927,28.927,0,0,1-3.737-.151,45.771,45.771,0,0,1-5.3-.833c-1.237-.253-1.969-.379-2.1-.228s.329.581,1.516,1.212a22.274,22.274,0,0,0,5.379,1.869,28.388,28.388,0,0,0,3.586.5,11.4,11.4,0,0,0,.353,5.051,7.05,7.05,0,0,0,1.137,2.5c.379.455.783.556,1.136.025.657-1.035.556-3.762-.05-6.086a8.525,8.525,0,0,0-.455-1.414h.354a13.688,13.688,0,0,0,2.449-.278,13.208,13.208,0,0,0,8.309-6.111A21.385,21.385,0,0,0,86.9,93.354a39.4,39.4,0,0,0-.278-6.693c1.137-1.616,7.122-11.187-.4-23.359-8.258-13.334-17.854-1.541-17.854-1.541s-11.945-7.146-19.092,2.3a29.668,29.668,0,0,0-6.136,19.269s-2.5-.152-1.97,3.333S49.476,96.712,49.527,98.505ZM85.286,78.631ZM53.239,79.969c.783-.581,2.374-1.338,4.116-2.475a30.494,30.494,0,0,0,5.253-4.318,47.924,47.924,0,0,0,3.308-3.864c.3-.4.531-.656.707-.656s.329.277.329.858a10.462,10.462,0,0,1-2.2,5.051A17.067,17.067,0,0,1,58.9,79.54a11.042,11.042,0,0,1-5.253,1.414C52.608,80.878,52.456,80.525,53.239,79.969Z"/><path d="M125.262,171.16a54.657,54.657,0,0,0-2.4-12.121,61.333,61.333,0,0,0-22.879-31.265,56.956,56.956,0,0,0-20.052-8.864c-.429-.429-.833-.883-1.263-1.288-.429-.454-.883-.909-1.237-1.262L76.6,115.5l-.808.808c-2.879,2.854-5.531,5.455-7.854,7.778-6.188-3.661-11.061-6.465-14.344-8.283l-.127-.076-.1.1c-4.419,4.723-4.773,5.632-.075,1.692a2.72,2.72,0,0,1,.277-.227c3.283,2.273,8.006,5.4,13.738,9.117l.935.606.833-.783c2.3-2.147,4.824-4.495,7.45-6.92.556.581,1.086,1.162,1.641,1.768l.329.354.454.1c17.223,3.788,31.618,16.667,39.4,32.224a73.056,73.056,0,0,1,5.733,17.071C125.01,176.514,125.414,177.2,125.262,171.16Z"/><path d="M69.149,132.244c1.717,1.819,6.616,5.405,11.869,8.763l2.879,1.844-.657-3.233c-.3-1.464-.631-2.954-.959-4.394-1.768-7.4-3.308-10.859-3.46-7.753a56.754,56.754,0,0,0,.96,9.294c-.884-.556-1.768-1.086-2.627-1.591C70.588,131.285,67.028,129.972,69.149,132.244Z"/><path d="M56.8,141.967l1.414-1.591c.455-.5.884-1.01,1.338-1.515,4.773-5.455,6.566-8.612,4.066-7.046a40.662,40.662,0,0,0-5.606,4.773c-.606-1.894-1.263-3.788-1.945-5.632-2.55-6.793-4.47-9.874-4.267-6.919.176,2.7,2.02,9.47,4.242,15.758Z"/><path d="M66.724,133.684a.877.877,0,0,0-.328.833.743.743,0,0,0,.177.4c.985,2.955,6.389,25.734,5.556,42a.766.766,0,0,0,.732.808h.051a.771.771,0,0,0,.757-.732c.834-16.213-4.9-42.654-6.111-43.335A.816.816,0,0,0,66.724,133.684Z"/><path class="b" d="M147.258,141.285a17.483,17.483,0,0,0-5.783-9.192,7.284,7.284,0,0,0,1.036-4.748c-.531-3.03-3.687-4.621-6.213-5.783-2.474-1.136-5.909-3.46-8.712-2.5a6.568,6.568,0,0,0-4.091,6.869c.252,1.288,1.464,2.2,2.449,2.929a60.348,60.348,0,0,0,8.46,5.2c.96.479,2.223,1.237,3.359.985a5.478,5.478,0,0,0,2.551-1.516,18.956,18.956,0,0,1,2.576,3.132,12.739,12.739,0,0,1,2.146,9.066c-.656,3.914-2.626,7.475-4.116,11.111-1.642,3.965-3.384,7.905-4.773,11.945a31.362,31.362,0,0,0-1.541,6.339,28.072,28.072,0,0,0-.1,5.783,33.761,33.761,0,0,0,1.718,8.132c.631,1.843,1.035,2.626,1.161,2.475a10.454,10.454,0,0,0-.328-3.031c-.985-5.96-1.111-11.642.657-17.45,1.692-5.556,4.419-10.682,6.641-16.036C146.173,150.73,148.42,146.083,147.258,141.285Zm-7.121-12.677a2.865,2.865,0,0,1-.96,1.54c-.681.531-.959.278-.934-.4a3.654,3.654,0,0,0-.732-2.778,16.337,16.337,0,0,0-3.738-2.954,16.536,16.536,0,0,1-3.283-2.576c-.5-.657-.379-.985.4-.935a13.946,13.946,0,0,1,6.364,2.753,7.055,7.055,0,0,1,2.829,3.687A2.717,2.717,0,0,1,140.137,128.608Z"/></svg>