<svg width="96" height="96" viewBox="0 0 96 96" fill="none" xmlns="http://www.w3.org/2000/svg">
<path fill-rule="evenodd" clip-rule="evenodd" d="M33 33C31.8954 33 31 33.8954 31 35V65C31 66.1046 31.8954 67 33 67H63C64.1046 67 65 66.1046 65 65V35C65 33.8954 64.1046 33 63 33H33ZM37 37C35.8954 37 35 37.8954 35 39V61C35 62.1046 35.8954 63 37 63H59C60.1046 63 61 62.1046 61 61V39C61 37.8954 60.1046 37 59 37H37Z" fill="#A8ABFF"/>
<path d="M33 66.5C32.7239 66.5 32.5 66.7239 32.5 67C32.5 67.2761 32.7239 67.5 33 67.5V66.5ZM63.5 67.5C63.7761 67.5 64 67.2761 64 67C64 66.7239 63.7761 66.5 63.5 66.5V67.5ZM33 32.5C32.7239 32.5 32.5 32.7239 32.5 33C32.5 33.2761 32.7239 33.5 33 33.5V32.5ZM63.5 33.5C63.7761 33.5 64 33.2761 64 33C64 32.7239 63.7761 32.5 63.5 32.5V33.5ZM41.5 45C41.5 44.1716 42.1716 43.5 43 43.5V42.5C41.6193 42.5 40.5 43.6193 40.5 45H41.5ZM43 43.5H53V42.5H43V43.5ZM53 43.5C53.8284 43.5 54.5 44.1716 54.5 45H55.5C55.5 43.6193 54.3807 42.5 53 42.5V43.5ZM54.5 45V55H55.5V45H54.5ZM54.5 55C54.5 55.8284 53.8284 56.5 53 56.5V57.5C54.3807 57.5 55.5 56.3807 55.5 55H54.5ZM53 56.5H43V57.5H53V56.5ZM43 56.5C42.1716 56.5 41.5 55.8284 41.5 55H40.5C40.5 56.3807 41.6193 57.5 43 57.5V56.5ZM41.5 55V45H40.5V55H41.5ZM42 33V27H41V33H42ZM43.5 25.5H44.5V24.5H43.5V25.5ZM47 23V9H46V23H47ZM44.5 6.5H20.5V7.5H44.5V6.5ZM55 33V31.5H54V33H55ZM56.5 30H61.5V29H56.5V30ZM64 27.5V15.5H63V27.5H64ZM65.5 14H76.5V13H65.5V14ZM41 67V81.5H42V67H41ZM43.5 84H47.5V83H43.5V84ZM49 85.5V90H50V85.5H49ZM47.5 91.5H22.5V92.5H47.5V91.5ZM21 90V83.5H20V90H21ZM18.5 81H8.5V82H18.5V81ZM54 67V72.5H55V67H54ZM56.5 75H63.5V74H56.5V75ZM65 76.5V81.5H66V76.5H65ZM67.5 84H79.5V83H67.5V84ZM65 57H69.5V56H65V57ZM71 58.5V62.5H72V58.5H71ZM73.5 65H85.5V64H73.5V65ZM87 66.5V92H88V66.5H87ZM65 44H76.5V43H65V44ZM79 41.5V33.5H78V41.5H79ZM80.5 32H93V31H80.5V32ZM31 43H23.5V44H31V43ZM22 41.5V39.5H21V41.5H22ZM19.5 37H8.5V38H19.5V37ZM7 35.5V28.5H6V35.5H7ZM31 56H18.5V57H31V56ZM16 58.5V64.5H17V58.5H16ZM14.5 66H5V67H14.5V66ZM3.5 64.5V55H2.5V64.5H3.5ZM79 11.5V3H78V11.5H79ZM33 67.5H41.5V66.5H33V67.5ZM41.5 67.5H54.5V66.5H41.5V67.5ZM54.5 67.5H63.5V66.5H54.5V67.5ZM33 33.5H41.5V32.5H33V33.5ZM41.5 33.5H54.5V32.5H41.5V33.5ZM54.5 33.5H63.5V32.5H54.5V33.5ZM5 66C4.17157 66 3.5 65.3284 3.5 64.5H2.5C2.5 65.8807 3.61929 67 5 67V66ZM16 64.5C16 65.3284 15.3284 66 14.5 66V67C15.8807 67 17 65.8807 17 64.5H16ZM18.5 56C17.1193 56 16 57.1193 16 58.5H17C17 57.6716 17.6716 57 18.5 57V56ZM22 39.5C22 38.1193 20.8807 37 19.5 37V38C20.3284 38 21 38.6716 21 39.5H22ZM76.5 44C77.8807 44 79 42.8807 79 41.5H78C78 42.3284 77.3284 43 76.5 43V44ZM69.5 57C70.3284 57 71 57.6716 71 58.5H72C72 57.1193 70.8807 56 69.5 56V57ZM65 81.5C65 82.8807 66.1193 84 67.5 84V83C66.6716 83 66 82.3284 66 81.5H65ZM63.5 75C64.3284 75 65 75.6716 65 76.5H66C66 75.1193 64.8807 74 63.5 74V75ZM54 72.5C54 73.8807 55.1193 75 56.5 75V74C55.6716 74 55 73.3284 55 72.5H54ZM21 83.5C21 82.1193 19.8807 81 18.5 81V82C19.3284 82 20 82.6716 20 83.5H21ZM8.5 37C7.67157 37 7 36.3284 7 35.5H6C6 36.8807 7.11929 38 8.5 38V37ZM41 81.5C41 82.8807 42.1193 84 43.5 84V83C42.6716 83 42 82.3284 42 81.5H41ZM23.5 43C22.6716 43 22 42.3284 22 41.5H21C21 42.8807 22.1193 44 23.5 44V43ZM76.5 14C77.8807 14 79 12.8807 79 11.5H78C78 12.3284 77.3284 13 76.5 13V14ZM64 15.5C64 14.6716 64.6716 14 65.5 14V13C64.1193 13 63 14.1193 63 15.5H64ZM22.5 91.5C21.6716 91.5 21 90.8284 21 90H20C20 91.3807 21.1193 92.5 22.5 92.5V91.5ZM47 9C47 7.61929 45.8807 6.5 44.5 6.5V7.5C45.3284 7.5 46 8.17157 46 9H47ZM61.5 30C62.8807 30 64 28.8807 64 27.5H63C63 28.3284 62.3284 29 61.5 29V30ZM49 90C49 90.8284 48.3284 91.5 47.5 91.5V92.5C48.8807 92.5 50 91.3807 50 90H49ZM85.5 65C86.3284 65 87 65.6716 87 66.5H88C88 65.1193 86.8807 64 85.5 64V65ZM44.5 25.5C45.8807 25.5 47 24.3807 47 23H46C46 23.8284 45.3284 24.5 44.5 24.5V25.5ZM79 33.5C79 32.6716 79.6716 32 80.5 32V31C79.1193 31 78 32.1193 78 33.5H79ZM55 31.5C55 30.6716 55.6716 30 56.5 30V29C55.1193 29 54 30.1193 54 31.5H55ZM47.5 84C48.3284 84 49 84.6716 49 85.5H50C50 84.1193 48.8807 83 47.5 83V84ZM71 62.5C71 63.8807 72.1193 65 73.5 65V64C72.6716 64 72 63.3284 72 62.5H71ZM42 27C42 26.1716 42.6716 25.5 43.5 25.5V24.5C42.1193 24.5 41 25.6193 41 27H42Z" fill="#000577"/>
<path d="M63.5 80.5V77.5C63.5 76.9477 63.0523 76.5 62.5 76.5H59.5M18.5 61.5V59.5C18.5 58.9477 18.9477 58.5 19.5 58.5H24M44.5 14.5V10C44.5 9.44772 44.0523 9 43.5 9H39M71.5 41.5H75.5C76.0523 41.5 76.5 41.0523 76.5 40.5V35.5" stroke="#A8ABFF" stroke-linecap="round" stroke-linejoin="round"/>
<path d="M21.5 7C21.5 8.65686 20.1569 10 18.5 10C16.8431 10 15.5 8.65686 15.5 7C15.5 5.34315 16.8431 4 18.5 4C20.1569 4 21.5 5.34315 21.5 7Z" fill="#A8ABFF"/>
<path d="M9.5 26C9.5 27.6569 8.15685 29 6.5 29C4.84315 29 3.5 27.6569 3.5 26C3.5 24.3431 4.84315 23 6.5 23C8.15685 23 9.5 24.3431 9.5 26Z" fill="#A8ABFF"/>
<path d="M81.5 3C81.5 4.65685 80.1569 6 78.5 6C76.8431 6 75.5 4.65685 75.5 3C75.5 1.34315 76.8431 0 78.5 0C80.1569 0 81.5 1.34315 81.5 3Z" fill="#A8ABFF"/>
<path d="M96 31C96 32.6569 94.6569 34 93 34C91.3431 34 90 32.6569 90 31C90 29.3431 91.3431 28 93 28C94.6569 28 96 29.3431 96 31Z" fill="#A8ABFF"/>
<path d="M90.5 93C90.5 94.6569 89.1569 96 87.5 96C85.8431 96 84.5 94.6569 84.5 93C84.5 91.3431 85.8431 90 87.5 90C89.1569 90 90.5 91.3431 90.5 93Z" fill="#A8ABFF"/>
<path d="M81 84C81 85.6569 79.6569 87 78 87C76.3431 87 75 85.6569 75 84C75 82.3432 76.3431 81 78 81C79.6569 81 81 82.3432 81 84Z" fill="#A8ABFF"/>
<path d="M10 81.5C10 83.1569 8.65685 84.5 7 84.5C5.34315 84.5 4 83.1569 4 81.5C4 79.8432 5.34315 78.5 7 78.5C8.65685 78.5 10 79.8432 10 81.5Z" fill="#A8ABFF"/>
<path d="M6 55C6 56.6569 4.65685 58 3 58C1.34315 58 0 56.6569 0 55C0 53.3431 1.34315 52 3 52C4.65685 52 6 53.3431 6 55Z" fill="#A8ABFF"/>
</svg>
