<svg width="96" height="96" viewBox="0 0 96 96" fill="none" xmlns="http://www.w3.org/2000/svg">
<path d="M50.4271 3.93372C50.387 3.92585 50.3915 3.92407 50.4293 3.93416C50.4286 3.93401 50.4278 3.93387 50.4271 3.93372ZM46.2425 6.15296C46.1251 7.14829 46.4581 7.91177 46.8772 8.4505C46.0575 8.91258 45.2174 9.41695 44.413 9.95848C42.6015 11.1781 40.5554 12.8522 39.4635 15.0342C39.0534 15.8538 38.5729 17.0151 38.6739 18.2455C38.7327 18.9619 39 19.8021 39.6738 20.502C40.3292 21.1828 41.1129 21.4642 41.7191 21.5706C42.7999 21.7603 43.8496 21.4924 44.5116 21.2832C45.2765 21.0414 46.0801 20.6895 46.8529 20.3033C49.379 19.0413 52.4654 16.9575 54.4167 15.2936C54.6527 15.5805 54.9439 15.9608 55.3026 16.4557C55.4172 16.6138 55.5389 16.7839 55.6666 16.9624C56.3013 17.8494 57.0855 18.9452 57.8909 19.8224C58.5681 20.5598 59.699 21.652 61.2319 22.0992C61.2027 22.2164 61.1647 22.3467 61.1153 22.4898C60.8766 23.1817 60.4706 23.8687 59.9853 24.3697C59.5033 24.8674 59.0727 25.0573 58.7501 25.0975C57.889 25.2051 56.958 25.4513 56.1246 26.0014C55.2269 26.5941 54.6124 27.429 54.2966 28.3888C53.761 30.0168 54.1958 31.7398 54.474 32.7477C54.6283 33.3063 54.8158 33.896 54.9912 34.4475L55.0281 34.5635C55.2208 35.1696 55.4058 35.7569 55.5716 36.3575C55.6779 36.7427 55.7725 37.1202 55.8519 37.4907C55.3348 37.2362 54.7213 36.9507 54.0959 36.7355C53.4232 36.5039 52.4013 36.2305 51.2849 36.3916C49.955 36.5835 48.792 37.3498 48.0919 38.6189C47.4955 39.7001 47.3415 40.9507 47.3415 42.1116C47.3415 42.2507 47.3383 42.3738 47.3331 42.4825C47.2829 42.466 47.2296 42.4478 47.1732 42.4278C46.454 42.1728 45.7064 41.8079 44.8208 41.3756C44.5548 41.2458 44.2764 41.1099 43.9826 40.969C43.4039 40.6917 42.7557 40.3933 42.1208 40.163C41.5276 39.9479 40.6966 39.6965 39.8049 39.6965C37.8662 39.6965 35.3025 40.249 33.1345 41.4734C31.1118 42.6157 28.9482 44.6626 28.6456 47.7928C27.9431 47.645 27.2936 47.5221 26.7334 47.4237C26.7281 47.4103 26.7228 47.3963 26.7172 47.3815C26.4989 46.7998 26.3332 45.8203 26.2645 44.4474C26.1983 43.1231 26.2302 41.6602 26.2845 40.2136C26.2982 39.8477 26.3138 39.4749 26.3294 39.1041C26.3723 38.0792 26.4146 37.0694 26.4146 36.2628C26.4146 34.5987 25.5722 33.4058 24.5993 32.6795C23.8757 32.1394 23.0187 31.8216 22.5966 31.6651C22.5663 31.6539 22.5383 31.6435 22.5127 31.6339C22.5076 31.632 22.5024 31.6301 22.4974 31.6282C22.5969 30.0897 23.0207 29.103 23.61 28.5983C26.0823 26.4809 27.4508 24.2253 28.1326 21.7922C28.7573 19.5631 28.7567 17.3048 28.7561 15.3745C28.7561 15.3684 28.7561 15.3624 28.7561 15.3563C28.8045 15.2723 28.9837 14.9855 29.5599 14.5057C30.426 13.7845 31.7336 13.0186 33.2938 12.3069C34.8286 11.6068 36.476 11.0188 37.9284 10.6101C39.4518 10.1815 40.5206 10.0186 40.9756 10.0186C41.5732 10.0186 42.5643 9.93335 43.4666 9.29137C44.5855 8.49533 44.9771 7.28948 44.9394 6.26714C44.9081 5.41898 44.5977 4.71681 44.3768 4.29301C44.1743 3.90462 43.9321 3.53649 43.6878 3.20355C45.1064 3.06891 46.5448 3 48 3C48.3585 3 48.7159 3.00418 49.0723 3.0125C48.8466 3.1119 48.6287 3.21577 48.4254 3.32368C48.1558 3.4668 47.7917 3.67934 47.4491 3.97153C47.2269 4.1611 46.3917 4.88815 46.2425 6.15296ZM53.7333 14.5904C53.7333 14.5904 53.7357 14.5918 53.7405 14.595C53.7357 14.5922 53.7333 14.5905 53.7333 14.5904ZM56.1094 39.984C56.1087 39.9833 56.1101 39.9692 56.1154 39.9442C56.1127 39.9723 56.11 39.9848 56.1094 39.984ZM47.2215 43.2084C47.2206 43.207 47.2256 43.1916 47.2395 43.1661C47.2294 43.1969 47.2225 43.2097 47.2215 43.2084ZM40.9756 4.0186C40.9706 4.0186 40.9657 4.01861 40.9607 4.01862C40.9922 4.01675 40.9991 4.0186 40.9756 4.0186ZM40.4634 55.5639C40.4634 55.3351 40.4472 55.1146 40.4169 54.9023C40.8918 55.4713 41.4987 55.9694 42.2517 56.3521C42.2487 56.5611 42.2278 56.8651 42.1716 57.2958C42.1489 57.4696 42.1121 57.7119 42.0702 57.9877C42.0448 58.1544 42.0176 58.3333 41.9906 58.5167C41.5581 57.9397 41.1903 57.3538 40.9186 56.8158C40.7362 56.4549 40.6138 56.1484 40.5405 55.9076C40.4741 55.6892 40.4649 55.5795 40.4636 55.5644C40.4634 55.562 40.4634 55.5619 40.4634 55.5639ZM38.9616 51.1843C38.9633 51.1927 38.9648 51.2005 38.9663 51.2081C38.9507 51.1497 38.9516 51.1353 38.9616 51.1843ZM53.0946 65.1917C52.9372 64.8839 52.7507 64.6044 52.547 64.3514C53.0848 64.1841 53.6009 64.0163 54.0727 63.8621C54.1538 63.8355 54.2331 63.8096 54.3104 63.7843C55.1722 63.5023 55.7976 63.2977 56.218 63.1845C56.2809 63.1953 56.4109 63.2231 56.6267 63.2959C57.1015 63.456 57.6324 63.6999 58.4061 64.0553C58.516 64.1057 58.6307 64.1584 58.7509 64.2135C60.5062 65.0173 63.0868 66.1674 66.1463 66.1674C66.8834 66.1674 67.7444 66.134 68.4388 66.1071C68.8124 66.0926 69.1378 66.08 69.3697 66.0755C70.019 66.0628 70.384 66.0893 70.5868 66.1213C70.6584 66.3653 70.7561 66.8814 70.7561 67.8465C70.7561 68.9459 70.9625 70.041 71.4973 71.0292C72.0471 72.0449 72.8515 72.775 73.7595 73.2484C75.4158 74.1118 77.2891 74.0617 78.6186 73.8997C78.3229 74.5279 78.0377 75.2221 77.8702 75.8916C77.3984 77.7774 77.9311 79.502 78.4865 80.6572C78.5281 80.7436 78.5707 80.8289 78.6143 80.913C72.1564 86.9054 63.939 91.0233 54.8215 92.408C55.1796 91.7539 55.5559 91.0347 55.9511 90.2448C56.2024 89.7428 56.4461 89.2644 56.676 88.813C57.3014 87.5854 57.8249 86.5576 58.1214 85.7971C58.3327 85.2549 58.6018 84.4459 58.5597 83.5312C58.5083 82.4151 58.0232 81.5165 57.3643 80.8582C56.8339 80.3282 56.1991 79.9677 55.7944 79.7451C55.6361 79.658 55.3319 79.4979 55.0238 79.3356C54.7463 79.1896 54.4657 79.0418 54.2853 78.9441C53.2007 78.3568 51.7398 77.4964 49.8525 76.0147C48.0869 74.6286 47.7358 73.8299 47.679 73.6362C47.6849 73.6256 47.6925 73.6127 47.7023 73.5973C47.7358 73.5446 47.7907 73.4701 47.8775 73.3747C48.2865 72.9252 48.9568 72.4672 49.9091 71.8773C49.9704 71.8393 50.0343 71.7999 50.1001 71.7593C50.4735 71.5289 50.9092 71.2601 51.2794 71.0031C51.6482 70.7471 52.3478 70.2447 52.837 69.5116C53.7588 68.13 53.7783 66.5283 53.0946 65.1917ZM26.8471 47.6647C26.847 47.6652 26.8431 47.66 26.8359 47.6479C26.8436 47.6581 26.8472 47.6642 26.8471 47.6647ZM88.3902 55.5639C88.3902 55.2832 88.306 55.1288 88.1526 55.0805C87.2421 54.7937 87.0446 55.1445 87.1545 55.5639C87.2363 55.8759 87.4882 56.2257 87.7435 56.3794C88.0642 56.5725 88.3902 56.4557 88.3902 55.5639Z" fill="#A8ABFF" stroke="#A8ABFF" stroke-width="6"/>
<path d="M0.5 47.9605C0.5 25.3288 16.3546 6.39543 37.5726 1.64707C40.9277 0.896245 44.4172 0.5 48 0.5C51.7894 0.5 55.4746 0.943272 59.0066 1.78053C70.0106 4.38898 79.5339 10.8231 86.0906 19.6004C92.001 27.5126 95.5 37.3275 95.5 47.9605C95.5 60.7642 90.4263 72.383 82.177 80.9207C73.5382 89.8615 61.4194 95.4209 48 95.4209C23.7274 95.4209 3.70692 77.2298 0.849681 53.7489C0.618845 51.8519 0.5 49.9202 0.5 47.9605Z" stroke="#000577"/>
<path d="M33.9513 63.1675C33.9513 63.8135 33.4272 64.3373 32.7806 64.3373C32.134 64.3373 31.6099 63.8135 31.6099 63.1675C31.6099 62.5215 32.134 61.9977 32.7806 61.9977C33.4272 61.9977 33.9513 62.5215 33.9513 63.1675Z" fill="#000577"/>
<path d="M53.8538 28.0744C53.8538 28.7204 53.3296 29.2441 52.6831 29.2441C52.0365 29.2441 51.5123 28.7204 51.5123 28.0744C51.5123 27.4283 52.0365 26.9046 52.6831 26.9046C53.3296 26.9046 53.8538 27.4283 53.8538 28.0744Z" fill="#000577"/>
<path d="M72.5855 44.451C72.5855 45.097 72.0613 45.6208 71.4147 45.6208C70.7682 45.6208 70.244 45.097 70.244 44.451C70.244 43.8049 70.7682 43.2812 71.4147 43.2812C72.0613 43.2812 72.5855 43.8049 72.5855 44.451Z" fill="#000577"/>
<path d="M93.6586 39.7722C93.6586 40.4183 93.1344 40.942 92.4879 40.942C91.8413 40.942 91.3171 40.4183 91.3171 39.7722C91.3171 39.1262 91.8413 38.6025 92.4879 38.6025C93.1344 38.6025 93.6586 39.1262 93.6586 39.7722Z" fill="#000577"/>
<path d="M90.1465 57.3188C90.1465 57.9648 89.6224 58.4886 88.9758 58.4886C88.3292 58.4886 87.8051 57.9648 87.8051 57.3188C87.8051 56.6728 88.3292 56.149 88.9758 56.149C89.6224 56.149 90.1465 56.6728 90.1465 57.3188Z" fill="#000577"/>
<path d="M64.3904 74.8649C64.3904 75.5109 63.8663 76.0346 63.2197 76.0346C62.5731 76.0346 62.049 75.5109 62.049 74.8649C62.049 74.2188 62.5731 73.6951 63.2197 73.6951C63.8663 73.6951 64.3904 74.2188 64.3904 74.8649Z" fill="#000577"/>
<path d="M76.0977 79.5441C76.0977 80.1902 75.5735 80.7139 74.927 80.7139C74.2804 80.7139 73.7562 80.1902 73.7562 79.5441C73.7562 78.8981 74.2804 78.3744 74.927 78.3744C75.5735 78.3744 76.0977 78.8981 76.0977 79.5441Z" fill="#000577"/>
<path d="M63.2196 88.9021C63.2196 89.5482 62.6955 90.0719 62.0489 90.0719C61.4023 90.0719 60.8782 89.5482 60.8782 88.9021C60.8782 88.2561 61.4023 87.7324 62.0489 87.7324C62.6955 87.7324 63.2196 88.2561 63.2196 88.9021Z" fill="#000577"/>
<path d="M33.9513 28.0744C33.9513 28.7204 33.4272 29.2441 32.7806 29.2441C32.134 29.2441 31.6099 28.7204 31.6099 28.0744C31.6099 27.4283 32.134 26.9046 32.7806 26.9046C33.4272 26.9046 33.9513 27.4283 33.9513 28.0744Z" fill="#000577"/>
<path d="M35.1221 17.5464C35.1221 18.1925 34.5979 18.7162 33.9514 18.7162C33.3048 18.7162 32.7806 18.1925 32.7806 17.5464C32.7806 16.9004 33.3048 16.3766 33.9514 16.3766C34.5979 16.3766 35.1221 16.9004 35.1221 17.5464Z" fill="#000577"/>
</svg>
